HIERARCHY
ROOT Hips
{
 OFFSET 0.000000 0.000000 0.000000
 CHANNELS 6 Xposition Yposition Zposition Yrotation Xrotation Zrotation
 JOINT Chest
 {
  OFFSET 0.000000 9.585900 0.002600
  CHANNELS 3 Yrotation Xrotation Zrotation
  JOINT Chest2
  {
   OFFSET 0.000000 9.601200 -0.005300
   CHANNELS 3 Yrotation Xrotation Zrotation
   JOINT Chest3
   {
    OFFSET 0.000000 9.561800 0.000000
    CHANNELS 3 Yrotation Xrotation Zrotation
    JOINT Chest4
    {
     OFFSET 0.000000 9.552100 0.000000
     CHANNELS 3 Yrotation Xrotation Zrotation
     JOINT Neck
     {
      OFFSET 0.000000 14.453000 0.000000
      CHANNELS 3 Yrotation Xrotation Zrotation
      JOINT Head
      {
       OFFSET 0.000000 8.936500 -0.011300
       CHANNELS 3 Yrotation Xrotation Zrotation
       End Site
       {
        OFFSET 0.000000 17.073600 -0.006000
       }
      }
     }
     JOINT RightCollar
     {
      OFFSET -2.921100 9.558500 0.000000
      CHANNELS 3 Yrotation Xrotation Zrotation
      JOINT RightShoulder
      {
       OFFSET -13.519700 0.000000 0.000000
       CHANNELS 3 Yrotation Xrotation Zrotation
       JOINT RightElbow
       {
        OFFSET 0.000000 -29.696600 0.000000
        CHANNELS 3 Yrotation Xrotation Zrotation
        JOINT RightWrist
        {
         OFFSET 0.000000 -24.004700 0.000000
         CHANNELS 3 Yrotation Xrotation Zrotation
         End Site
         {
          OFFSET 0.000000 -17.728500 0.000000
         }
        }
       }
      }
     }
     JOINT LeftCollar
     {
      OFFSET 2.921100 9.558500 0.000000
      CHANNELS 3 Yrotation Xrotation Zrotation
      JOINT LeftShoulder
      {
       OFFSET 13.519700 0.000000 0.000000
       CHANNELS 3 Yrotation Xrotation Zrotation
       JOINT LeftElbow
       {
        OFFSET 0.000000 -29.696600 0.000000
        CHANNELS 3 Yrotation Xrotation Zrotation
        JOINT LeftWrist
        {
         OFFSET 0.000000 -24.004700 0.000000
         CHANNELS 3 Yrotation Xrotation Zrotation
         End Site
         {
          OFFSET 0.000000 -17.728500 0.000000
         }
        }
       }
      }
     }
    }
   }
  }
 }
 JOINT RightHip
 {
  OFFSET -7.771700 -0.012900 -0.001300
  CHANNELS 3 Yrotation Xrotation Zrotation
  JOINT RightKnee
  {
   OFFSET 0.000000 -40.869800 0.001200
   CHANNELS 3 Yrotation Xrotation Zrotation
   JOINT RightAnkle
   {
    OFFSET 0.000000 -39.717900 0.002100
    CHANNELS 3 Yrotation Xrotation Zrotation
    JOINT RightToe
    {
     OFFSET 0.000000 -4.965400 11.033500
     CHANNELS 3 Yrotation Xrotation Zrotation
     End Site
     {
      OFFSET 0.000000 -1.423100 5.872300
     }
    }
   }
  }
 }
 JOINT LeftHip
 {
  OFFSET 7.771700 -0.012900 -0.001300
  CHANNELS 3 Yrotation Xrotation Zrotation
  JOINT LeftKnee
  {
   OFFSET 0.000000 -40.869800 0.001200
   CHANNELS 3 Yrotation Xrotation Zrotation
   JOINT LeftAnkle
   {
    OFFSET 0.000000 -39.717900 0.002100
    CHANNELS 3 Yrotation Xrotation Zrotation
    JOINT LeftToe
    {
     OFFSET 0.000000 -4.965400 11.033500
     CHANNELS 3 Yrotation Xrotation Zrotation
     End Site
     {
      OFFSET 0.000000 -1.423100 5.872300
     }
    }
   }
  }
 }
}
MOTION
Frames: 11
Frame Time: 0.008333
-249.501707 60.544588 -79.429713 155.192010 -15.041127 2.328883 4.497709 10.984451 0.128299 0.316149 0.778466 -0.000857 0.544509 1.341858 -0.000867 4.110733 10.022548 0.313322 2.979629 19.501224 -0.306872 3.244578 -5.033983 -1.009523 3.401518 5.146109 -2.055893 -5.436023 -12.266471 -6.401716 -80.223199 -80.160589 97.223286 -0.025777 5.406160 -34.893943 -5.375523 1.644126 -4.555725 22.405707 -4.503897 2.045359 68.701115 -78.532588 -85.373169 -5.487137 5.626190 8.538646 0.897072 -54.089411 7.408280 -25.811681 70.832180 -22.823975 -0.629552 -5.820125 -3.167739 0.049251 -0.255163 0.020438 17.039444 -53.752069 -1.223246 28.727775 67.200593 28.691096 -15.507234 -17.207244 0.557106 0.115757 0.237093 0.027116
-249.501521 60.544506 -79.428249 155.197512 -15.030919 2.316366 4.496305 10.979613 0.136899 0.315037 0.775647 -0.000110 0.547276 1.352301 -0.002889 4.108802 10.014183 0.314904 2.959563 19.512955 -0.313700 3.243512 -5.056572 -1.008329 3.415845 5.147598 -2.083215 -5.444924 -12.252928 -6.392285 -80.197910 -80.155541 97.200402 -0.033410 5.406236 -34.886986 -5.379304 1.641449 -4.554954 22.396521 -4.482243 2.060063 68.715815 -78.529553 -85.384593 -5.484279 5.625297 8.542295 0.880277 -54.099874 7.423531 -25.803538 70.831099 -22.813000 -0.628448 -5.811566 -3.166950 0.046606 -0.260064 0.018667 17.021692 -53.766591 -1.205867 28.720024 67.198033 28.679120 -15.493770 -17.195460 0.553169 0.055705 0.232860 0.024338
-249.503069 60.544297 -79.426762 155.208926 -15.016422 2.312355 4.488294 10.970865 0.135781 0.317158 0.782291 -0.001744 0.545108 1.349147 -0.001448 4.105892 10.021520 0.310617 2.951921 19.502444 -0.312911 3.211612 -5.071952 -1.004024 3.419356 5.130929 -2.082876 -5.434559 -12.240055 -6.406358 -80.145487 -80.151370 97.149286 -0.034665 5.406892 -34.882358 -5.381413 1.627395 -4.548721 22.393157 -4.473554 2.066263 68.656977 -78.525154 -85.326147 -5.486535 5.644541 8.532931 0.869090 -54.115820 7.425588 -25.800892 70.831473 -22.810240 -0.632591 -5.807500 -3.168041 0.048012 -0.261078 0.020448 17.017941 -53.781436 -1.207953 28.722062 67.193172 28.676158 -15.516365 -17.185259 0.550116 0.110163 0.237978 0.044604
-249.505708 60.544333 -79.426486 155.210861 -15.005283 2.320286 4.487360 10.971651 0.125444 0.321404 0.792951 -0.004890 0.542243 1.340788 0.000172 4.107145 10.039188 0.306961 2.939171 19.477198 -0.310665 3.199385 -5.082700 -1.001564 3.418184 5.101256 -2.094335 -5.425538 -12.227948 -6.405974 -80.068967 -80.148572 97.072044 -0.031567 5.432799 -34.871230 -5.388638 1.595803 -4.543130 22.387342 -4.463023 2.075145 68.590619 -78.522707 -85.258610 -5.486164 5.624865 8.537505 0.879913 -54.130317 7.411504 -25.802929 70.833531 -22.811982 -0.638512 -5.802137 -3.168943 0.052599 -0.264995 0.021773 17.040074 -53.788569 -1.227199 28.726303 67.189984 28.678753 -15.573265 -17.180868 0.551782 0.097755 0.241312 0.050181
-249.506626 60.544636 -79.426580 155.209243 -14.999851 2.321065 4.495410 10.994481 0.120882 0.316612 0.768161 -0.001075 0.543743 1.355794 -0.001462 4.105417 10.028195 0.307215 2.930479 19.474315 -0.310517 3.182330 -5.091827 -0.996645 3.418948 5.097433 -2.106069 -5.417301 -12.219894 -6.406305 -80.053314 -80.143314 97.050841 -0.032637 5.424091 -34.874140 -5.395884 1.595316 -4.543586 22.388302 -4.464727 2.077059 68.495035 -78.521874 -85.168330 -5.484973 5.628151 8.545182 0.879644 -54.136375 7.411318 -25.805064 70.834116 -22.812200 -0.637012 -5.800352 -3.171185 0.053885 -0.266469 0.021598 17.049911 -53.792866 -1.232760 28.731596 67.191976 28.683585 -15.600351 -17.187721 0.556562 0.094924 0.249217 0.050139
-249.508565 60.544803 -79.426216 155.204759 -14.988447 2.327171 4.498775 10.995822 0.114252 0.318177 0.770072 -0.001341 0.542151 1.357612 -0.001160 4.106535 10.019618 0.306452 2.926746 19.468576 -0.310693 3.171680 -5.095691 -0.993226 3.418090 5.089916 -2.121810 -5.414802 -12.213590 -6.396851 -79.982357 -80.142607 96.981293 -0.026114 5.432090 -34.871649 -5.406809 1.608085 -4.545588 22.392817 -4.478337 2.074538 68.409610 -78.521441 -85.089454 -5.484621 5.645778 8.547270 0.889010 -54.147338 7.404241 -25.803268 70.829573 -22.811835 -0.635851 -5.796847 -3.167081 0.058840 -0.265019 0.020463 17.071360 -53.800897 -1.248669 28.724361 67.193306 28.679897 -15.647776 -17.194907 0.562698 0.081584 0.256666 0.047632
-249.509996 60.545406 -79.427168 155.196161 -14.985106 2.334981 4.505775 10.997594 0.108062 0.317254 0.783162 -0.001995 0.542934 1.351709 -0.000555 4.105852 10.026361 0.306896 2.913068 19.457856 -0.310542 3.171196 -5.105479 -0.995368 3.424056 5.075251 -2.157327 -5.420251 -12.209465 -6.368684 -79.819005 -80.144369 96.828217 -0.019132 5.424014 -34.866227 -5.413541 1.598714 -4.546890 22.376675 -4.466345 2.083685 68.427177 -78.520534 -85.093091 -5.481549 5.634872 8.551997 0.904218 -54.149829 7.395193 -25.808356 70.826320 -22.816468 -0.631134 -5.796930 -3.165853 0.060136 -0.262599 0.020181 17.100340 -53.802164 -1.269764 28.705476 67.204445 28.671034 -15.671074 -17.203739 0.568584 0.061452 0.258600 0.043597
-249.510048 60.545758 -79.426625 155.188541 -14.976666 2.331420 4.513331 11.002476 0.112989 0.317456 0.783499 -0.002087 0.543741 1.341539 -0.000811 4.106841 10.060878 0.306969 2.899940 19.427800 -0.312605 3.155844 -5.114459 -0.992318 3.423930 5.038058 -2.176664 -5.399746 -12.192722 -6.382479 -79.610535 -80.134531 96.629775 -0.023905 5.391215 -34.878213 -5.419757 1.566913 -4.545224 22.369151 -4.462521 2.088081 68.371989 -78.521224 -85.032515 -5.486094 5.635671 8.550534 0.903435 -54.157532 7.405628 -25.816963 70.822364 -22.824292 -0.625482 -5.795846 -3.165371 0.061302 -0.261762 0.020431 17.104409 -53.810005 -1.266895 28.651429 67.217733 28.630511 -15.675873 -17.229738 0.576155 0.077958 0.271655 0.034344
-249.511095 60.545833 -79.425373 155.200176 -14.962508 2.326628 4.502389 11.012192 0.108764 0.315971 0.773311 0.000954 0.544074 1.343420 -0.000738 4.109249 10.067704 0.305600 2.885708 19.417148 -0.310173 3.142083 -5.126831 -0.989932 3.423508 5.015189 -2.180507 -5.384977 -12.183095 -6.395435 -79.605304 -80.127876 96.617077 -0.022501 5.432597 -34.876426 -5.421949 1.546255 -4.542207 22.355624 -4.453120 2.094899 68.317659 -78.521171 -84.971358 -5.497205 5.669194 8.520707 0.887257 -54.168985 7.412391 -25.814682 70.817838 -22.826964 -0.620578 -5.799118 -3.161384 0.059851 -0.257343 0.020486 17.083910 -53.828187 -1.263973 28.649620 67.217770 28.623520 -15.668325 -17.224527 0.576658 0.055410 0.264716 0.027961
-249.508481 60.546303 -79.424898 155.210055 -14.962010 2.304382 4.498735 11.015710 0.127450 0.320983 0.793533 -0.003767 0.544636 1.347511 -0.000924 4.106476 10.061084 0.306601 2.869481 19.405202 -0.305905 3.108267 -5.139070 -0.975362 3.419613 4.987078 -2.191480 -5.368379 -12.169931 -6.400603 -79.440916 -80.129141 96.452393 -0.026928 5.414173 -34.885384 -5.435287 1.532418 -4.534922 22.352173 -4.453660 2.095993 68.240283 -78.521353 -84.890218 -5.503017 5.669168 8.507252 0.849726 -54.170468 7.446359 -25.827438 70.821104 -22.841243 -0.605342 -5.797961 -3.154236 0.048106 -0.262797 0.015414 17.042765 -53.836396 -1.233708 28.670449 67.212817 28.637031 -15.581895 -17.227681 0.569190 0.104425 0.266020 0.035020
-249.505701 60.546521 -79.423884 155.222391 -14.958771 2.278990 4.495613 11.016890 0.148737 0.321707 0.800432 -0.005029 0.544809 1.349388 -0.001239 4.104733 10.068492 0.304467 2.858168 19.395439 -0.301068 3.111249 -5.152970 -0.976838 3.418619 4.959208 -2.211366 -5.354524 -12.157302 -6.395925 -79.249778 -80.130542 96.262798 -0.035950 5.378563 -34.900186 -5.445127 1.520457 -4.526168 22.354513 -4.460490 2.092377 68.116844 -78.522901 -84.772060 -5.503743 5.653637 8.504942 0.812797 -54.173499 7.481189 -25.833074 70.820413 -22.843304 -0.602455 -5.795899 -3.149058 0.044990 -0.266019 0.009803 16.998033 -53.850019 -1.197053 28.704870 67.211076 28.664517 -15.532041 -17.235331 0.562564 0.145281 0.269538 0.045482
